<?xml version="1.0" encoding="utf-8"?>
<!-- Generator: Adobe Illustrator 23.0.0, SVG Export Plug-In . SVG Version: 6.00 Build 0)  -->
<svg version="1.1" id="Capa_1" xmlns="http://www.w3.org/2000/svg" xmlns:xlink="http://www.w3.org/1999/xlink" x="0px" y="0px"
	 viewBox="0 0 512 512" style="enable-background:new 0 0 512 512;" xml:space="preserve">
<style type="text/css">
	.st0{fill:#F2CD5E;}
</style>
<g id="Outline">
	<g>
		<path class="st0" d="M56,352h320c4.4,0,8-3.6,8-8s-3.6-8-8-8H56c-13.3,0-24-10.7-24-24s10.7-24,24-24h32c4.4,0,8-3.6,8-8v-48
			c0-4.4-3.6-8-8-8s-8,3.6-8,8v40H56c-8.7,0-17.1,2.8-24,8V56c0-13.3,10.7-24,24-24h24v168c0,4.4,3.6,8,8,8s8-3.6,8-8V64h296
			c4.4,0,8-3.6,8-8s-3.6-8-8-8H96V24c0-4.4-3.6-8-8-8H56c-22.1,0-40,17.9-40,40v256C16,334.1,33.9,352,56,352z"/>
		<path class="st0" d="M456,16h-32c-4.4,0-8,3.6-8,8v256c0,4.4,3.6,8,8,8h32c13.3,0,24,10.7,24,24s-10.7,24-24,24h-48
			c-4.4,0-8,3.6-8,8s3.6,8,8,8h48c22.1,0,40-17.9,40-40V56C496,33.9,478.1,16,456,16z M456,272h-24V32h24c13.3,0,24,10.7,24,24v224
			C473.1,274.8,464.7,272,456,272z"/>
		<path class="st0" d="M320,152c0-2.4-1.1-4.7-3-6.2l-80-64c-2.9-2.3-7.1-2.3-10,0l-80,64c-0.1,0.1-0.1,0.2-0.2,0.3
			c-0.7,0.8-1.4,1.7-2,2.6c-0.5,1-0.7,2.2-0.8,3.3v96c0,4.4,3.6,8,8,8h160c4.4,0,8-3.6,8-8V152z M192,240v-32h16v32H192z M304,240
			h-80v-40c0-4.4-3.6-8-8-8h-32c-4.4,0-8,3.6-8,8v40h-16v-80h104c4.4,0,8-3.6,8-8s-3.6-8-8-8h-89.2L232,98.2l72,57.6V240z"/>
		<path class="st0" d="M240,184v32c0,4.4,3.6,8,8,8h32c4.4,0,8-3.6,8-8v-32c0-4.4-3.6-8-8-8h-32C243.6,176,240,179.6,240,184z
			 M256,192h16v16h-16V192z"/>
		<path class="st0" d="M344,240c-4.4,0-8,3.6-8,8s3.6,8,8,8h32c4.4,0,8-3.6,8-8s-3.6-8-8-8h-8V96h8c4.4,0,8-3.6,8-8s-3.6-8-8-8h-32
			c-4.4,0-8,3.6-8,8s3.6,8,8,8h8v144H344z"/>
		<path class="st0" d="M312,320c4.4,0,8-3.6,8-8v-32c0-4.4-3.6-8-8-8s-8,3.6-8,8v8H160v-8c0-4.4-3.6-8-8-8s-8,3.6-8,8v32
			c0,4.4,3.6,8,8,8s8-3.6,8-8v-8h144v8C304,316.4,307.6,320,312,320z"/>
		<path class="st0" d="M392,312c4.4,0,8-3.6,8-8v-12c0-11-9-20-20-20c-4.3,0-8.5,1.4-12,4c-8.8-6.6-21.4-4.8-28,4
			c-2.6,3.5-4,7.7-4,12v12c0,4.4,3.6,8,8,8s8-3.6,8-8v-12c0-2.2,1.8-4,4-4s4,1.8,4,4c0,4.4,3.6,8,8,8s8-3.6,8-8c0-2.2,1.8-4,4-4
			s4,1.8,4,4v12C384,308.4,387.6,312,392,312z"/>
		<path class="st0" d="M424,368H288c-4.4,0-8,3.6-8,8s3.6,8,8,8h80v16H216v-16h40c4.4,0,8-3.6,8-8s-3.6-8-8-8h-48
			c-0.8,0-1.5,0.1-2.3,0.3l-48,14.2c-4.2,1.2-6.7,5.7-5.5,9.9c0.7,2.5,2.5,4.4,4.9,5.3l48,17.8c0.9,0.3,1.8,0.5,2.8,0.5h216
			c13.3,0,24-10.7,24-24S437.3,368,424,368z M384,384h16v16h-16V384z M200,386.7v9.8l-14.7-5.5L200,386.7z M424,400h-8v-16h8
			c4.4,0,8,3.6,8,8S428.4,400,424,400z"/>
		<path class="st0" d="M440,432H24c-4.4,0-8,3.6-8,8v48c0,4.4,3.6,8,8,8h96c4.4,0,8-3.6,8-8s-3.6-8-8-8H32v-32h16v8c0,4.4,3.6,8,8,8
			s8-3.6,8-8v-8h16v8c0,4.4,3.6,8,8,8s8-3.6,8-8v-8h16v8c0,4.4,3.6,8,8,8s8-3.6,8-8v-8h16v8c0,4.4,3.6,8,8,8s8-3.6,8-8v-8h16v8
			c0,4.4,3.6,8,8,8s8-3.6,8-8v-8h16v8c0,4.4,3.6,8,8,8s8-3.6,8-8v-8h16v8c0,4.4,3.6,8,8,8s8-3.6,8-8v-8h16v8c0,4.4,3.6,8,8,8
			s8-3.6,8-8v-8h16v8c0,4.4,3.6,8,8,8s8-3.6,8-8v-8h16v8c0,4.4,3.6,8,8,8s8-3.6,8-8v-8h16v8c0,4.4,3.6,8,8,8s8-3.6,8-8v-8h16v8
			c0,4.4,3.6,8,8,8s8-3.6,8-8v-8h16v32H152c-4.4,0-8,3.6-8,8s3.6,8,8,8h288c4.4,0,8-3.6,8-8v-48C448,435.6,444.4,432,440,432z"/>
	</g>
</g>
</svg>
