<?xml version="1.0" encoding="utf-8"?>
<!-- Generator: Adobe Illustrator 23.0.0, SVG Export Plug-In . SVG Version: 6.00 Build 0)  -->
<svg version="1.1" id="outline" xmlns="http://www.w3.org/2000/svg" xmlns:xlink="http://www.w3.org/1999/xlink" x="0px" y="0px"
	 viewBox="0 0 512 512" style="enable-background:new 0 0 512 512;" xml:space="preserve">
<style type="text/css">
	.st0{fill:#F2CD5E;}
</style>
<path class="st0" d="M472,200H342.6c-6.4,0-12.5,2.5-17,7L279,253.7c-4.5,4.5-7,10.6-7,17v9.9L229.8,255c6.7-11.9,10.2-25.3,10.2-39
	v-80c0-35.3-28.7-64-64-64h-24c-10.1,0-19.6,4.8-25.6,12.8c-4.1-3.1-9.2-4.8-14.4-4.8c-17.7,0-32,14.3-32,32v104
	c0,13.7,3.5,27.1,10.2,39l-51.1,30.9C24.8,294.7,16.1,310.2,16,327v49c0,18.1,5.6,35.8,16,50.5V488c0,4.4,3.6,8,8,8h432
	c13.2,0,24-10.8,24-24V224C496,210.8,485.2,200,472,200L472,200z M160,296c5.4,0,10.7-0.5,16-1.6v8.3l-5.8,17.3h-20.5l-5.8-17.3
	v-8.3C149.3,295.5,154.6,296,160,296L160,296z M151.2,336h16.8l7.4,67.3l-8.6,4.3l-22.4-4.5L151.2,336z M176,420.9l39.4-19.7
	c1.6-0.8,3.5-1.2,5.3-1.3c1.8,0,3.3,1.5,3.3,3.3c0,0.9-0.3,1.7-1,2.3l-12.7,12.7c-3.1,3.1-3.1,8.2,0,11.3c1.5,1.5,3.5,2.3,5.7,2.3
	h54.7c0.7,0,1.3,0.6,1.3,1.3c0,0.6-0.4,1.1-0.9,1.2l-32.4,10.8c-5.3,1.8-10.9,2.7-16.4,2.7H176V420.9z M272,299.3V416h-36.7
	c7-8,6.2-20.2-1.9-27.3c-3.5-3.1-8-4.7-12.7-4.7c-4.3,0-8.6,1-12.5,2.9l-17.5,8.8l-7.1-65.1c0,0,0,0,0-0.1l8-24
	c0.3-0.8,0.4-1.7,0.4-2.5v-14.7c11-4.8,20.8-12.1,28.6-21.2L272,299.3z M224,216c0,35.3-28.7,64-64,64s-64-28.7-64-64v-64h1.4
	c12.8,0,24.8-6.4,32-17c8.3,10.7,21.1,17,34.7,17h60L224,216z M152,88h24c26.5,0,48,21.5,48,48h-60c-15.5,0-28-12.5-28-28v-4
	C136,95.2,143.2,88,152,88z M112,96c4.4,0,8,3.6,8,8v9.4c0,12.5-10.1,22.6-22.6,22.6H96v-24C96,103.2,103.2,96,112,96z M32,327
	c0-11.2,5.9-21.5,15.4-27.4l52-31.5c7.8,9.1,17.6,16.3,28.6,21.2V304c0,0.9,0.1,1.7,0.4,2.5l7.5,22.4l-7.1,71.1
	c-19-3.9-32.7-20.6-32.8-40H80c0.1,27.1,19.1,50.3,45.7,55.7l34.3,6.9V448h-56c-39.7,0-72-32.3-72-72V327z M48,443.8
	c15.7,13.1,35.6,20.2,56,20.2h118.3c7.3,0,14.6-1.2,21.5-3.5l28.2-9.4V472c0,2.7,0.5,5.4,1.4,8H48V443.8z M480,472c0,4.4-3.6,8-8,8
	H296c-4.4,0-8-3.6-8-8V270.6c0-2.1,0.8-4.2,2.3-5.7l46.6-46.6c1.5-1.5,3.5-2.3,5.7-2.3H472c4.4,0,8,3.6,8,8V472z"/>
<path d="M420.8,317.6l-8.6-6.5c2.5-4.7,3.8-9.9,3.8-15.1v-40c0-2.7-1.3-5.2-3.6-6.7l-19.4-12.9c-12.1-8.1-28.5-4.8-36.6,7.3
	c-2.9,4.3-4.4,9.4-4.4,14.7V296c0,5.3,1.3,10.5,3.8,15.1l-8.6,6.5c-12.1,9.1-19.2,23.3-19.2,38.4v20c0,4.4,3.6,8,8,8h96
	c4.4,0,8-3.6,8-8v-20C440,340.9,432.9,326.7,420.8,317.6z M384,312c-8.8,0-16-7.2-16-16v-16h32v16C400,304.8,392.8,312,384,312z
	 M368,258.4c0-5.8,4.7-10.4,10.4-10.4c2.1,0,4.1,0.6,5.8,1.8l15.8,10.5v3.7h-32V258.4z M344,356c0-10.1,4.8-19.5,12.8-25.6l10-7.5
	c2.8,1.8,6,3.2,9.2,4.1v41h-32V356z M424,368h-32v-41c3.3-0.9,6.4-2.2,9.2-4.1l10,7.5c8,6.1,12.8,15.5,12.8,25.6V368z"/>
<path d="M368,408h72v16h-72V408z"/>
<path d="M384,440h24v16h-24V440z"/>
<path d="M424,440h16v16h-16V440z"/>
<path d="M328,440h40v16h-40V440z"/>
<path class="st0" d="M272,216c2.1,0,4.2-0.8,5.7-2.3l35.3-35.3c1.5-1.5,3.5-2.3,5.7-2.3H448c13.2,0,24-10.8,24-24V40
	c0-13.2-10.8-24-24-24H288c-13.2,0-24,10.8-24,24v168C264,212.4,267.6,216,272,216L272,216z M280,40c0-4.4,3.6-8,8-8h160
	c4.4,0,8,3.6,8,8v112c0,4.4-3.6,8-8,8H318.6c-6.4,0-12.5,2.5-17,7L280,188.7V40z"/>
<path d="M352,56h16v16h-16V56z"/>
<path d="M384,56h48v16h-48V56z"/>
<path d="M304,88h24v16h-24V88z"/>
<path d="M408,88h24v16h-24V88z"/>
<path d="M344,88h48v16h-48V88z"/>
<path d="M304,120h72v16h-72V120z"/>
<path d="M392,120h40v16h-40V120z"/>
<path d="M112,168h32v16h-32V168z"/>
<path d="M160,232c0,4.4-3.6,8-8,8h-8v16h8c13.2,0,24-10.8,24-24v-16h-16V232z"/>
<circle cx="128" cy="200" r="8"/>
<path d="M176,168h32v16h-32V168z"/>
<circle cx="192" cy="200" r="8"/>
</svg>
