<?xml version="1.0" encoding="utf-8"?>
<!-- Generator: Adobe Illustrator 23.0.0, SVG Export Plug-In . SVG Version: 6.00 Build 0)  -->
<svg version="1.1" id="Capa_1" xmlns="http://www.w3.org/2000/svg" xmlns:xlink="http://www.w3.org/1999/xlink" x="0px" y="0px"
	 viewBox="0 0 512 512" style="enable-background:new 0 0 512 512;" xml:space="preserve">
<style type="text/css">
	.st0{fill:#F2CD5E;}
</style>
<g>
	<g>
		<path class="st0" d="M502.8,84.9c-5.1,0-9.2,4.1-9.2,9.2v399.3h-73.9v-20.8h44.2c5.1,0,9.2-4.1,9.2-9.2V300.1
			c0-5.1-4.1-9.2-9.2-9.2h-39.5v-20.4h39.5c5.1,0,9.2-4.1,9.2-9.2V47.8c0-5.1-4.1-9.2-9.2-9.2H275.5c-5.1,0-9.2,4.1-9.2,9.2v133.8
			h-20.4V47.8c0-5.1-4.1-9.2-9.2-9.2H48.1c-5.1,0-9.2,4.1-9.2,9.2v173.8v39.6c0,5.1,4.1,9.2,9.2,9.2h33.4c5.1,0,9.2-4.1,9.2-9.2
			s-4.1-9.2-9.2-9.2H57.4v-21.1h39.2c32.7,0,59.3-26.6,59.3-59.3V57h71.4v133.8c0,5.1,4.1,9.2,9.2,9.2h38.9c5.1,0,9.2-4.1,9.2-9.2
			V57h169.9v23.8h-24.4c-5.1,0-9.2,4.1-9.2,9.2v126.9c0,5.1,4.1,9.2,9.2,9.2h24.4v25.8h-39.5c-5.1,0-9.2,4.1-9.2,9.2v38.9
			c0,5.1,4.1,9.2,9.2,9.2h39.5v144.9h-44.2c-5.1,0-9.2,4.1-9.2,9.2v39.3c0,5.1,4.1,9.2,9.2,9.2h92.4c5.1,0,9.2-4.1,9.2-9.2V94.2
			C512,89.1,507.9,84.9,502.8,84.9z M137.4,171.6L137.4,171.6c0,22.5-18.3,40.8-40.8,40.8H57.4V57h6.7v6c0,5.1,4.1,9.2,9.2,9.2
			s9.2-4.1,9.2-9.2v-6h5.5v24.5c0,5.1,4.1,9.2,9.2,9.2s9.2-4.1,9.2-9.2V57h5.5v6c0,5.1,4.1,9.2,9.2,9.2s9.2-4.1,9.2-9.2v-6h6.7
			L137.4,171.6L137.4,171.6z M454.6,207.7h-15.2V99.3h15.2V207.7z"/>
	</g>
</g>
<g>
	<g>
		<path class="st0" d="M502.8,0H9.2C4.1,0,0,4.1,0,9.2v493.5c0,5.1,4.1,9.2,9.2,9.2H336c5.1,0,9.2-4.1,9.2-9.2v-39.3
			c0-5.1-4.1-9.2-9.2-9.2h-51.3v-90c0-5.1-4.1-9.2-9.2-9.2h-38.9c-5.1,0-9.2,4.1-9.2,9.2v90H57.4v-21.2h28.1c8.7,0,16.4-4.4,21-11
			c8,4.2,17.3,6.4,27,6.4c28.8,0,52.3-20.1,52.3-44.9c0-7.4-2.1-14.6-6.1-21.1c-2.7-4.3-8.4-5.7-12.7-3c-4.3,2.7-5.7,8.4-3,12.7
			c2.2,3.6,3.3,7.4,3.3,11.4c0,14.6-15.2,26.4-33.8,26.4c-8.3,0-16.3-2.4-22.5-6.8v-39.3c6.2-4.3,14.2-6.8,22.5-6.8
			c5.4,0,10.5,1,15.3,2.9c4.7,1.9,10.1-0.4,12-5.1s-0.4-10.1-5.1-12c-7-2.8-14.4-4.2-22.2-4.2c-9.7,0-18.9,2.2-27,6.4
			c-4.6-6.7-12.3-11-20.9-11H57.4v-24.6h255c5.1,0,9.2-4.1,9.2-9.2v-38.9c0-5.1-4.1-9.2-9.2-9.2H111.1c-5.1,0-9.2,4.1-9.2,9.2
			s4.1,9.2,9.2,9.2h192v20.4h-255c-5.1,0-9.2,4.1-9.2,9.2v163.4c0,5.1,4.1,9.2,9.2,9.2h188.4c5.1,0,9.2-4.1,9.2-9.2v-90h20.4v90
			c0,5.1,4.1,9.2,9.2,9.2h51.3v20.8H18.5v-475h475v42.8c0,5.1,4.1,9.2,9.2,9.2s9.2-4.1,9.2-9.2V9.2C512,4.1,507.9,0,502.8,0z
			 M57.4,352.5h28.1v0c3.8,0,7,3.1,7,7v48.2c0,3.8-3.1,7-7,7H57.4V352.5z"/>
	</g>
</g>
<g>
	<g>
		<path class="st0" d="M386.2,80.8H318c-5.1,0-9.2,4.1-9.2,9.2v126.9c0,5.1,4.1,9.2,9.2,9.2h68.2c5.1,0,9.2-4.1,9.2-9.2v-30.2v-66.5
			V90C395.5,84.9,391.3,80.8,386.2,80.8z M377,177.5h-17.6v-48H377V177.5z M377,111h-26.9c-5.1,0-9.2,4.1-9.2,9.2v66.5
			c0,5.1,4.1,9.2,9.2,9.2H377v11.7h-49.7V99.3H377V111z"/>
	</g>
</g>
<g>
	<g>
		
			<ellipse transform="matrix(7.088897e-02 -0.9975 0.9975 7.088897e-02 -260.9964 486.825)" class="st0" cx="130.8" cy="383.5" rx="9.2" ry="9.2"/>
	</g>
</g>
<g>
	<g>
		<circle class="st0" cx="97.4" cy="178.8" r="9.2"/>
	</g>
</g>
</svg>
