<?xml version="1.0" encoding="utf-8"?>
<!-- Generator: Adobe Illustrator 23.0.0, SVG Export Plug-In . SVG Version: 6.00 Build 0)  -->
<svg version="1.1" id="line_Icons" xmlns="http://www.w3.org/2000/svg" xmlns:xlink="http://www.w3.org/1999/xlink" x="0px" y="0px"
	 viewBox="0 0 512 512" style="enable-background:new 0 0 512 512;" xml:space="preserve">
<style type="text/css">
	.st0{fill:#F2CD5E;}
</style>
<path d="M353.5,443.4c-3.8,0-6.9-3.1-6.9-6.9V68.9l-87.7-36.8l-73.6,29v375.4c0,3.8-3.1,6.9-6.9,6.9c-3.8,0-6.9-3.1-6.9-6.9V56.4
	c0-2.8,1.7-5.4,4.4-6.4l80.6-31.7c1.7-0.7,3.5-0.6,5.2,0.1l94.5,39.7c2.6,1.1,4.2,3.6,4.2,6.4v372.1
	C360.4,440.3,357.3,443.4,353.5,443.4L353.5,443.4L353.5,443.4z"/>
<path d="M258.9,443.4c-3.8,0-6.9-3.1-6.9-6.9V24.7c0-3.8,3.1-6.9,6.9-6.9c3.8,0,6.9,3.1,6.9,6.9v411.8
	C265.9,440.3,262.8,443.4,258.9,443.4z"/>
<path d="M465.2,443.4c-3.8,0-6.9-3.1-6.9-6.9V219l-67.7-39.4h-37.1c-3.8,0-6.9-3.1-6.9-6.9c0-3.8,3.1-6.9,6.9-6.9h39
	c1.2,0,2.4,0.3,3.5,0.9l72.7,42.3c2.1,1.2,3.5,3.5,3.5,6v221.4C472.1,440.2,469,443.4,465.2,443.4
	C465.2,443.4,465.2,443.4,465.2,443.4z"/>
<path d="M392.5,443.4c-3.8,0-6.9-3.1-6.9-6.9V172.7c0-3.8,3.1-6.9,6.9-6.9c3.8,0,6.9,3.1,6.9,6.9v263.7
	C399.4,440.3,396.3,443.4,392.5,443.4z"/>
<path d="M36.2,443.4c-3.8,0-6.9-3.1-6.9-6.9V221c0-3.8,3.1-6.9,6.9-6.9h142.1c3.8,0,6.9,3.1,6.9,6.9c0,3.8-3.1,6.9-6.9,6.9H43.1
	v208.6C43.1,440.3,40,443.4,36.2,443.4z"/>
<path d="M74.3,254.5H59.6c-3.8,0-6.9-3.1-6.9-6.9s3.1-6.9,6.9-6.9h14.7c3.8,0,6.9,3.1,6.9,6.9S78.1,254.5,74.3,254.5z"/>
<path class="st0" d="M114.6,254.5H99.9c-3.8,0-6.9-3.1-6.9-6.9s3.1-6.9,6.9-6.9h14.7c3.8,0,6.9,3.1,6.9,6.9S118.4,254.5,114.6,254.5
	z"/>
<path d="M154.9,254.5h-14.7c-3.8,0-6.9-3.1-6.9-6.9s3.1-6.9,6.9-6.9h14.7c3.8,0,6.9,3.1,6.9,6.9S158.7,254.5,154.9,254.5z"/>
<path class="st0" d="M74.3,286.9H59.6c-3.8,0-6.9-3.1-6.9-6.9c0-3.8,3.1-6.9,6.9-6.9h14.7c3.8,0,6.9,3.1,6.9,6.9
	C81.2,283.8,78.1,286.9,74.3,286.9z"/>
<path d="M114.6,286.9H99.9c-3.8,0-6.9-3.1-6.9-6.9c0-3.8,3.1-6.9,6.9-6.9h14.7c3.8,0,6.9,3.1,6.9,6.9
	C121.5,283.8,118.4,286.9,114.6,286.9z"/>
<path d="M154.9,286.9h-14.7c-3.8,0-6.9-3.1-6.9-6.9c0-3.8,3.1-6.9,6.9-6.9h14.7c3.8,0,6.9,3.1,6.9,6.9
	C161.8,283.8,158.7,286.9,154.9,286.9z"/>
<path d="M74.3,319.4H59.6c-3.8,0-6.9-3.1-6.9-6.9c0-3.8,3.1-6.9,6.9-6.9h14.7c3.8,0,6.9,3.1,6.9,6.9
	C81.2,316.3,78.1,319.4,74.3,319.4z"/>
<path d="M114.6,319.4H99.9c-3.8,0-6.9-3.1-6.9-6.9c0-3.8,3.1-6.9,6.9-6.9h14.7c3.8,0,6.9,3.1,6.9,6.9
	C121.5,316.3,118.4,319.4,114.6,319.4z"/>
<path class="st0" d="M154.9,319.4h-14.7c-3.8,0-6.9-3.1-6.9-6.9c0-3.8,3.1-6.9,6.9-6.9h14.7c3.8,0,6.9,3.1,6.9,6.9
	C161.8,316.3,158.7,319.4,154.9,319.4z"/>
<path class="st0" d="M74.3,351.9H59.6c-3.8,0-6.9-3.1-6.9-6.9c0-3.8,3.1-6.9,6.9-6.9h14.7c3.8,0,6.9,3.1,6.9,6.9
	C81.2,348.8,78.1,351.9,74.3,351.9z"/>
<path class="st0" d="M114.6,351.9H99.9c-3.8,0-6.9-3.1-6.9-6.9c0-3.8,3.1-6.9,6.9-6.9h14.7c3.8,0,6.9,3.1,6.9,6.9
	C121.5,348.8,118.4,351.9,114.6,351.9z"/>
<path d="M154.9,351.9h-14.7c-3.8,0-6.9-3.1-6.9-6.9c0-3.8,3.1-6.9,6.9-6.9h14.7c3.8,0,6.9,3.1,6.9,6.9
	C161.8,348.8,158.7,351.9,154.9,351.9z"/>
<path d="M74.3,384.3H59.6c-3.8,0-6.9-3.1-6.9-6.9c0-3.8,3.1-6.9,6.9-6.9h14.7c3.8,0,6.9,3.1,6.9,6.9
	C81.2,381.2,78.1,384.3,74.3,384.3z"/>
<path class="st0" d="M114.6,384.3H99.9c-3.8,0-6.9-3.1-6.9-6.9c0-3.8,3.1-6.9,6.9-6.9h14.7c3.8,0,6.9,3.1,6.9,6.9
	C121.5,381.2,118.4,384.3,114.6,384.3z"/>
<path d="M154.9,384.3h-14.7c-3.8,0-6.9-3.1-6.9-6.9c0-3.8,3.1-6.9,6.9-6.9h14.7c3.8,0,6.9,3.1,6.9,6.9
	C161.8,381.2,158.7,384.3,154.9,384.3z"/>
<path d="M74.3,416.8H59.6c-3.8,0-6.9-3.1-6.9-6.9c0-3.8,3.1-6.9,6.9-6.9h14.7c3.8,0,6.9,3.1,6.9,6.9
	C81.2,413.7,78.1,416.8,74.3,416.8z"/>
<path d="M114.6,416.8H99.9c-3.8,0-6.9-3.1-6.9-6.9c0-3.8,3.1-6.9,6.9-6.9h14.7c3.8,0,6.9,3.1,6.9,6.9
	C121.5,413.7,118.4,416.8,114.6,416.8z"/>
<path class="st0" d="M154.9,416.8h-14.7c-3.8,0-6.9-3.1-6.9-6.9c0-3.8,3.1-6.9,6.9-6.9h14.7c3.8,0,6.9,3.1,6.9,6.9
	C161.8,413.7,158.7,416.8,154.9,416.8z"/>
<path class="st0" d="M234.6,92.4c-3.8,0-6.9-3.1-6.9-6.9V72.4c0-3.8,3.1-6.9,6.9-6.9c3.8,0,6.9,3.1,6.9,6.9v13.1
	C241.5,89.3,238.4,92.4,234.6,92.4z"/>
<path d="M203,100.4c-3.8,0-6.9-3.1-6.9-6.9V80.5c0-3.8,3.1-6.9,6.9-6.9s6.9,3.1,6.9,6.9v13.1C209.9,97.3,206.8,100.4,203,100.4z"/>
<path d="M234.6,144.4c-3.8,0-6.9-3.1-6.9-6.9v-13.1c0-3.8,3.1-6.9,6.9-6.9c3.8,0,6.9,3.1,6.9,6.9v13.1
	C241.5,141.3,238.4,144.4,234.6,144.4z"/>
<path class="st0" d="M203,152.5c-3.8,0-6.9-3.1-6.9-6.9v-13.1c0-3.8,3.1-6.9,6.9-6.9s6.9,3.1,6.9,6.9v13.1
	C209.9,149.4,206.8,152.5,203,152.5z"/>
<path class="st0" d="M234.6,196.5c-3.8,0-6.9-3.1-6.9-6.9v-13.1c0-3.8,3.1-6.9,6.9-6.9c3.8,0,6.9,3.1,6.9,6.9v13.1
	C241.5,193.4,238.4,196.5,234.6,196.5z"/>
<path d="M203,204.5c-3.8,0-6.9-3.1-6.9-6.9v-13.1c0-3.8,3.1-6.9,6.9-6.9s6.9,3.1,6.9,6.9v13.1C209.9,201.4,206.8,204.5,203,204.5z"
	/>
<path d="M234.6,248.5c-3.8,0-6.9-3.1-6.9-6.9v-13.1c0-3.8,3.1-6.9,6.9-6.9c3.8,0,6.9,3.1,6.9,6.9v13.1
	C241.5,245.4,238.4,248.5,234.6,248.5z"/>
<path d="M203,256.6c-3.8,0-6.9-3.1-6.9-6.9v-13.1c0-3.8,3.1-6.9,6.9-6.9s6.9,3.1,6.9,6.9v13.1C209.9,253.5,206.8,256.6,203,256.6z"
	/>
<path d="M234.6,300.6c-3.8,0-6.9-3.1-6.9-6.9v-13.1c0-3.8,3.1-6.9,6.9-6.9c3.8,0,6.9,3.1,6.9,6.9v13.1
	C241.5,297.5,238.4,300.6,234.6,300.6z"/>
<path class="st0" d="M203,308.6c-3.8,0-6.9-3.1-6.9-6.9v-13c0-3.8,3.1-6.9,6.9-6.9s6.9,3.1,6.9,6.9v13
	C209.9,305.5,206.8,308.6,203,308.6z"/>
<path class="st0" d="M234.6,352.6c-3.8,0-6.9-3.1-6.9-6.9v-13.1c0-3.8,3.1-6.9,6.9-6.9c3.8,0,6.9,3.1,6.9,6.9v13.1
	C241.5,349.5,238.4,352.6,234.6,352.6z"/>
<path d="M203,360.6c-3.8,0-6.9-3.1-6.9-6.9v-13.1c0-3.8,3.1-6.9,6.9-6.9s6.9,3.1,6.9,6.9v13.1C209.9,357.5,206.8,360.6,203,360.6z"
	/>
<path d="M234.6,404.6c-3.8,0-6.9-3.1-6.9-6.9v-13c0-3.8,3.1-6.9,6.9-6.9c3.8,0,6.9,3.1,6.9,6.9v13.1
	C241.5,401.6,238.4,404.6,234.6,404.6z"/>
<path class="st0" d="M203,412.7c-3.8,0-6.9-3.1-6.9-6.9v-13.1c0-3.8,3.1-6.9,6.9-6.9s6.9,3.1,6.9,6.9v13.1
	C209.9,409.6,206.8,412.7,203,412.7C203,412.7,203,412.7,203,412.7z"/>
<path class="st0" d="M282.3,85.8c-3.8,0-6.9-3.1-6.9-6.9v-13c0-3.8,3.1-6.9,6.9-6.9c3.8,0,6.9,3.1,6.9,6.9v13
	C289.2,82.7,286.1,85.8,282.3,85.8z"/>
<path d="M305.7,94.6c-3.8,0-6.9-3.1-6.9-6.9v-13c0-3.8,3.1-6.9,6.9-6.9s6.9,3.1,6.9,6.9v13.1C312.6,91.5,309.5,94.6,305.7,94.6z"/>
<path d="M329,103.4c-3.8,0-6.9-3.1-6.9-6.9v-13c0-3.8,3.1-6.9,6.9-6.9c3.8,0,6.9,3.1,6.9,6.9v13.1
	C335.9,100.3,332.8,103.4,329,103.4z"/>
<path d="M282.3,137.7c-3.8,0-6.9-3.1-6.9-6.9v-13.1c0-3.8,3.1-6.9,6.9-6.9c3.8,0,6.9,3.1,6.9,6.9v13.1
	C289.2,134.6,286.1,137.7,282.3,137.7z"/>
<path class="st0" d="M305.7,146.5c-3.8,0-6.9-3.1-6.9-6.9v-13c0-3.8,3.1-6.9,6.9-6.9s6.9,3.1,6.9,6.9v13
	C312.6,143.4,309.5,146.5,305.7,146.5z"/>
<path d="M329,155.3c-3.8,0-6.9-3.1-6.9-6.9v-13c0-3.8,3.1-6.9,6.9-6.9c3.8,0,6.9,3.1,6.9,6.9v13.1
	C335.9,152.2,332.8,155.3,329,155.3z"/>
<path d="M282.3,189.5c-3.8,0-6.9-3.1-6.9-6.9v-13.1c0-3.8,3.1-6.9,6.9-6.9c3.8,0,6.9,3.1,6.9,6.9v13.1
	C289.2,186.4,286.1,189.5,282.3,189.5C282.3,189.5,282.3,189.5,282.3,189.5L282.3,189.5z"/>
<path class="st0" d="M305.7,198.3c-3.8,0-6.9-3.1-6.9-6.9v-13.1c0-3.8,3.1-6.9,6.9-6.9s6.9,3.1,6.9,6.9v13.1
	C312.6,195.2,309.5,198.3,305.7,198.3z"/>
<path d="M329,207.1c-3.8,0-6.9-3.1-6.9-6.9v-13c0-3.8,3.1-6.9,6.9-6.9c3.8,0,6.9,3.1,6.9,6.9v13.1
	C335.9,204.1,332.8,207.1,329,207.1z"/>
<path d="M282.3,241.4c-3.8,0-6.9-3.1-6.9-6.9v-13.1c0-3.8,3.1-6.9,6.9-6.9c3.8,0,6.9,3.1,6.9,6.9v13.1
	C289.2,238.3,286.1,241.4,282.3,241.4z"/>
<path d="M305.7,250.2c-3.8,0-6.9-3.1-6.9-6.9v-13.1c0-3.8,3.1-6.9,6.9-6.9s6.9,3.1,6.9,6.9v13.1
	C312.6,247.1,309.5,250.2,305.7,250.2z"/>
<path d="M329,259c-3.8,0-6.9-3.1-6.9-6.9V239c0-3.8,3.1-6.9,6.9-6.9c3.8,0,6.9,3.1,6.9,6.9v13.1C335.9,255.9,332.8,259,329,259z"/>
<path d="M282.3,293.2c-3.8,0-6.9-3.1-6.9-6.9v-13c0-3.8,3.1-6.9,6.9-6.9c3.8,0,6.9,3.1,6.9,6.9v13.1
	C289.2,290.2,286.1,293.2,282.3,293.2z"/>
<path class="st0" d="M305.7,302.1c-3.8,0-6.9-3.1-6.9-6.9v-13.1c0-3.8,3.1-6.9,6.9-6.9s6.9,3.1,6.9,6.9v13.1
	C312.6,299,309.5,302.1,305.7,302.1z"/>
<path d="M329,310.9c-3.8,0-6.9-3.1-6.9-6.9v-13.1c0-3.8,3.1-6.9,6.9-6.9c3.8,0,6.9,3.1,6.9,6.9v13.1
	C335.9,307.8,332.8,310.9,329,310.9z"/>
<path class="st0" d="M282.3,345.1c-3.8,0-6.9-3.1-6.9-6.9v-13.1c0-3.8,3.1-6.9,6.9-6.9c3.8,0,6.9,3.1,6.9,6.9v13.1
	C289.2,342,286.1,345.1,282.3,345.1z"/>
<path d="M305.7,353.9c-3.8,0-6.9-3.1-6.9-6.9v-13.1c0-3.8,3.1-6.9,6.9-6.9s6.9,3.1,6.9,6.9V347C312.6,350.8,309.5,353.9,305.7,353.9
	z"/>
<path d="M329,362.7c-3.8,0-6.9-3.1-6.9-6.9v-13.1c0-3.8,3.1-6.9,6.9-6.9c3.8,0,6.9,3.1,6.9,6.9v13.1
	C335.9,359.6,332.8,362.7,329,362.7z"/>
<path d="M282.3,397c-3.8,0-6.9-3.1-6.9-6.9V377c0-3.8,3.1-6.9,6.9-6.9c3.8,0,6.9,3.1,6.9,6.9V390C289.2,393.9,286.1,397,282.3,397z"
	/>
<path d="M305.7,405.8c-3.8,0-6.9-3.1-6.9-6.9v-13.1c0-3.8,3.1-6.9,6.9-6.9s6.9,3.1,6.9,6.9v13.1
	C312.6,402.7,309.5,405.8,305.7,405.8z"/>
<path d="M329,414.6c-3.8,0-6.9-3.1-6.9-6.9v-13.1c0-3.8,3.1-6.9,6.9-6.9c3.8,0,6.9,3.1,6.9,6.9v13.1
	C335.9,411.5,332.8,414.6,329,414.6z"/>
<path class="st0" d="M416.5,232.8c-3.8,0-6.9-3.1-6.9-6.9v-7c0-3.8,3.1-6.9,6.9-6.9c3.8,0,6.9,3.1,6.9,6.9v7
	C423.4,229.7,420.3,232.8,416.5,232.8z"/>
<path d="M439.8,247.5c-3.8,0-6.9-3.1-6.9-6.9v-7c0-3.8,3.1-6.9,6.9-6.9c3.8,0,6.9,3.1,6.9,6.9v7
	C446.8,244.4,443.7,247.5,439.8,247.5z"/>
<path d="M416.5,267c-3.8,0-6.9-3.1-6.9-6.9v-7c0-3.8,3.1-6.9,6.9-6.9c3.8,0,6.9,3.1,6.9,6.9v7C423.4,263.9,420.3,267,416.5,267
	L416.5,267z"/>
<path d="M439.8,281.6c-3.8,0-6.9-3.1-6.9-6.9v-7c0-3.8,3.1-6.9,6.9-6.9c3.8,0,6.9,3.1,6.9,6.9v7
	C446.7,278.6,443.6,281.6,439.8,281.6z"/>
<path class="st0" d="M416.5,301.2c-3.8,0-6.9-3.1-6.9-6.9v-7c0-3.8,3.1-6.9,6.9-6.9c3.8,0,6.9,3.1,6.9,6.9v7
	C423.4,298.1,420.3,301.2,416.5,301.2z"/>
<path class="st0" d="M439.8,315.8c-3.8,0-6.9-3.1-6.9-6.9v-7c0-3.8,3.1-6.9,6.9-6.9c3.8,0,6.9,3.1,6.9,6.9v7
	C446.8,312.7,443.7,315.8,439.8,315.8z"/>
<path d="M416.5,335.3c-3.8,0-6.9-3.1-6.9-6.9v-7c0-3.8,3.1-6.9,6.9-6.9c3.8,0,6.9,3.1,6.9,6.9v7
	C423.4,332.2,420.3,335.3,416.5,335.3z"/>
<path d="M439.8,350c-3.8,0-6.9-3.1-6.9-6.9v-7c0-3.8,3.1-6.9,6.9-6.9c3.8,0,6.9,3.1,6.9,6.9v7C446.8,346.9,443.7,350,439.8,350z"/>
<path class="st0" d="M416.5,369.5c-3.8,0-6.9-3.1-6.9-6.9v-7c0-3.8,3.1-6.9,6.9-6.9c3.8,0,6.9,3.1,6.9,6.9v7
	C423.4,366.4,420.3,369.5,416.5,369.5z"/>
<path class="st0" d="M439.8,384.2c-3.8,0-6.9-3.1-6.9-6.9v-7c0-3.8,3.1-6.9,6.9-6.9c3.8,0,6.9,3.1,6.9,6.9v7
	C446.8,381.1,443.7,384.2,439.8,384.2z"/>
<path d="M416.5,403.7c-3.8,0-6.9-3.1-6.9-6.9v-7c0-3.8,3.1-6.9,6.9-6.9c3.8,0,6.9,3.1,6.9,6.9v7
	C423.4,400.6,420.3,403.7,416.5,403.7z"/>
<path d="M439.8,418.3c-3.8,0-6.9-3.1-6.9-6.9v-7c0-3.8,3.1-6.9,6.9-6.9c3.8,0,6.9,3.1,6.9,6.9v7
	C446.8,415.2,443.7,418.3,439.8,418.3z"/>
<path d="M485.9,443.3H15.4c-3.8,0-6.9-3.1-6.9-6.9c0-3.8,3.1-6.9,6.9-6.9h470.5c3.8,0,6.9,3.1,6.9,6.9
	C492.8,440.2,489.7,443.3,485.9,443.3z"/>
</svg>
