<svg data-name="Capa 1" xmlns="http://www.w3.org/2000/svg" viewBox="0 0 16.5 16.5"><path d="M14 .25H2.5A2.25 2.25 0 00.91.91a2.29 2.29 0 00-.66 1.6V14a2.25 2.25 0 00.66 1.59 2.21 2.21 0 001.59.66h5.23v-5.82h-2V8.14h2V6.43a3 3 0 01.79-2.19 2.92 2.92 0 012.14-.81 9.86 9.86 0 011.75.1v2h-1.2a1.13 1.13 0 00-.89.28 1.27 1.27 0 00-.23.82v1.51h2.25l-.3 2.29h-2v5.84h3.91a2.22 2.22 0 001.59-.66 2.25 2.25 0 00.66-1.59V2.51a2.29 2.29 0 00-.66-1.6A2.27 2.27 0 0014 .25z" fill="#fbfbfb" stroke="#000" stroke-miterlimit="10" stroke-width=".5"/></svg>