<?xml version="1.0" encoding="utf-8"?>
<!-- Generator: Adobe Illustrator 23.0.0, SVG Export Plug-In . SVG Version: 6.00 Build 0)  -->
<svg version="1.1" id="Capa_1" xmlns="http://www.w3.org/2000/svg" xmlns:xlink="http://www.w3.org/1999/xlink" x="0px" y="0px"
	 viewBox="0 0 444.8 444.8" style="enable-background:new 0 0 444.8 444.8;" xml:space="preserve">
<style type="text/css">
	.st0{fill:#FFFFFF;}
</style>
<g>
	<path class="st0" d="M434,278.7L248.4,92.8c-7.4-7-16.1-10.6-26-10.6c-10.1,0-18.7,3.5-25.7,10.6L10.8,278.7
		C3.6,285.9,0,294.5,0,304.6c0,10.3,3.6,18.8,10.8,25.7l21.4,21.4c6.9,7.2,15.4,10.9,25.7,10.9c10.3,0,18.8-3.6,25.7-10.9
		l138.8-138.5l138.8,138.5c6.8,7.2,15.4,10.9,25.7,10.9c10.1,0,18.7-3.6,26-10.9l21.4-21.4c7-7,10.6-15.6,10.6-25.7
		C444.8,294.5,441.2,285.9,434,278.7z"/>
</g>
</svg>
