<?xml version="1.0" encoding="utf-8"?>
<!-- Generator: Adobe Illustrator 23.0.0, SVG Export Plug-In . SVG Version: 6.00 Build 0)  -->
<svg version="1.1" id="Capa_1" xmlns="http://www.w3.org/2000/svg" xmlns:xlink="http://www.w3.org/1999/xlink" x="0px" y="0px"
	 viewBox="0 0 480 480" style="enable-background:new 0 0 480 480;" xml:space="preserve">
<style type="text/css">
	.st0{fill:#F2CD5E;}
</style>
<path class="st0" d="M136,272h16v16h-16V272z"/>
<path d="M168,272h16v16h-16V272z"/>
<path class="st0" d="M200,272h16v16h-16V272z"/>
<path class="st0" d="M136,304h16v16h-16V304z"/>
<path class="st0" d="M168,304h16v16h-16V304z"/>
<path class="st0" d="M200,304h16v16h-16V304z"/>
<path class="st0" d="M232,304h16v16h-16V304z"/>
<path class="st0" d="M264,304h16v16h-16V304z"/>
<path class="st0" d="M136,336h16v16h-16V336z"/>
<path d="M168,336h16v16h-16V336z"/>
<path d="M200,336h16v16h-16V336z"/>
<path class="st0" d="M232,336h16v16h-16V336z"/>
<path class="st0" d="M264,336h16v16h-16V336z"/>
<path d="M136,368h16v16h-16V368z"/>
<path class="st0" d="M168,368h16v16h-16V368z"/>
<path class="st0" d="M200,368h16v16h-16V368z"/>
<path d="M232,368h16v16h-16V368z"/>
<path class="st0" d="M264,368h16v16h-16V368z"/>
<path class="st0" d="M136,400h16v16h-16V400z"/>
<path class="st0" d="M168,400h16v16h-16V400z"/>
<path d="M200,400h16v16h-16V400z"/>
<path class="st0" d="M232,400h16v16h-16V400z"/>
<path class="st0" d="M264,400h16v16h-16V400z"/>
<path d="M136,432h16v16h-16V432z"/>
<path class="st0" d="M168,432h16v16h-16V432z"/>
<path class="st0" d="M200,432h16v16h-16V432z"/>
<path d="M232,432h16v16h-16V432z"/>
<path class="st0" d="M264,432h16v16h-16V432z"/>
<path class="st0" d="M472,24h-56V8c0-4.4-3.6-8-8-8h-80c-4.4,0-8,3.6-8,8v16H8c-4.4,0-8,3.6-8,8v32c0,4.4,3.6,8,8,8h24v152
	c0,4.4,3.6,8,8,8s8,3.6,8,8c0,4.4-3.6,8-8,8s-8-3.6-8-8H16c0,5.9,2.2,11.5,6.1,15.9L1.6,283.2l0.1,0.1c-1.1,1.3-1.7,3-1.7,4.7v32
	c0,2.1,0.8,4.2,2.3,5.7l16,16c1.5,1.5,3.5,2.3,5.7,2.3h32c2.1,0,4.2-0.8,5.7-2.3l16-16c1.5-1.5,2.3-3.5,2.3-5.7v-32
	c0-1.7-0.6-3.4-1.7-4.7l0.1-0.1l-20.5-27.4c5.3-5.9,7.4-14.2,5.4-21.9c-2-7.7-7.7-14-15.2-16.6V72h272v8c0,4.4,3.6,8,8,8h16v376h-32
	V144h-16v32h-48v-16h-16v16h-48v-8h-16v8h-48v-24h104v-16H120v-32h-16v360H91.3l-37.7-37.7c-3.1-3.1-8.2-3.1-11.3,0L4.7,464H0v16
	h480v-16h-6.2c5.6-6.1,7.6-14.8,5.3-22.8c-2.4-8-8.7-14.2-16.8-16.3c4.1-10,0.9-21.5-7.7-28.1c-8.6-6.6-20.5-6.6-29.1,0
	c-8.6,6.6-11.7,18.1-7.7,28.1c-8.1,2.1-14.4,8.3-16.8,16.3c-2.4,8-0.4,16.6,5.3,22.8H392V88h16c4.4,0,8-3.6,8-8v-8h56
	c4.4,0,8-3.6,8-8V32C480,27.6,476.4,24,472,24z M44,264l12,16H24l12-16H44z M64,316.7L52.7,328H27.3L16,316.7V296h48V316.7z
	 M437.6,40L416,54.4V40H437.6z M336,16h32v32h-32V16z M120,41.6L141.6,56H98.4L120,41.6z M72,54.4L50.4,40h43.2L72,54.4z M146.4,40
	h43.2L168,54.4L146.4,40z M216,41.6L237.6,56h-43.2L216,41.6z M242.4,40h43.2L264,54.4L242.4,40z M16,40h5.6l24,16H16V40z M290.4,56
	l24-16h5.6v16H290.4z M376,437.6L361.6,416l14.4-21.6V437.6z M376,245.6L361.6,224l14.4-21.6V245.6z M360,250.4l14.4,21.6L360,293.6
	V250.4z M360,197.6v-43.2l14.4,21.6L360,197.6z M360,346.4l14.4,21.6L360,389.6V346.4z M376,341.6L361.6,320l14.4-21.6V341.6z
	 M361.6,128l14.4-21.6v43.2L361.6,128z M360,101.6V88h9.1L360,101.6z M296,192v80h-48v-80H296z M232,192v68.8l-18.4-18.2
	c-1.5-1.5-3.5-2.3-5.6-2.3h-24V192H232z M168,192v13.3h-48V192H168z M48,443.3L68.7,464H27.3L48,443.3z M120,464V221.3h48v27
	c0,4.4,3.6,8,8,8h28.7l29.7,29.4c1.5,1.5,3.5,2.3,5.6,2.3h56v176H120z M360,442.4l14.4,21.6H360V442.4z M456,456c-4.4,0-8-3.6-8-8
	c0-4.4,3.6-8,8-8s8,3.6,8,8C464,452.4,460.4,456,456,456z M440,408c4.4,0,8,3.6,8,8c0,4.4-3.6,8-8,8s-8-3.6-8-8
	C432,411.6,435.6,408,440,408z M424,440c4.4,0,8,3.6,8,8c0,4.4-3.6,8-8,8s-8-3.6-8-8C416,443.6,419.6,440,424,440z M400,72h-64v-8
	h40c4.4,0,8-3.6,8-8V16h16V72z M442.4,56L464,41.6V56H442.4z"/>
</svg>
