<svg height="512pt" viewBox="0 -1 512 512" width="512pt" xmlns="http://www.w3.org/2000/svg"><path d="m346.8125 465h-181.625l30-90h121.625zm0 0" fill="#cdd7d7"/><path d="m316.8125 375h-60.8125v90h90.8125zm0 0" fill="#abb1b1"/><path d="m376 510h-240c-8.285156 0-15-6.714844-15-15 0-24.8125 20.1875-45 45-45h180c24.8125 0 45 20.1875 45 45 0 8.285156-6.714844 15-15 15zm0 0" fill="#e6f0f0"/><path d="m346 450h-90v60h120c8.285156 0 15-6.714844 15-15 0-24.8125-20.1875-45-45-45zm0 0" fill="#cdd7d7"/><path d="m55 390c-30.375 0-55-24.625-55-55v-280c0-30.375 24.625-55 55-55h402c30.375 0 55 24.625 55 55v280c0 30.375-24.625 55-55 55zm0 0" fill="#e6f0f0"/><path d="m457 0h-201v390h201c30.375 0 55-24.625 55-55v-280c0-30.375-24.625-55-55-55zm0 0" fill="#cdd7d7"/><path d="m482 300v-245c0-13.785156-11.214844-25-25-25h-402c-13.785156 0-25 11.214844-25 25v245zm0 0" fill="#5a5a6e"/><path d="m482 300v-245c0-13.785156-11.214844-25-25-25h-201v270zm0 0" fill="#46465a"/><path d="m406 110c-8.285156 0-15 6.714844-15 15v45h-30v-45c0-8.285156-6.714844-15-15-15s-15 6.714844-15 15v60c0 8.285156 6.714844 15 15 15h45v45c0 8.285156 6.714844 15 15 15s15-6.714844 15-15v-120c0-8.285156-6.714844-15-15-15zm0 0" fill="#fedc00"/><path d="m166 110c-8.285156 0-15 6.714844-15 15v45h-30v-45c0-8.285156-6.714844-15-15-15s-15 6.714844-15 15v60c0 8.285156 6.714844 15 15 15h45v45c0 8.285156 6.714844 15 15 15s15-6.714844 15-15v-120c0-8.285156-6.714844-15-15-15zm0 0" fill="#feef55"/><path d="m266 110h-20c-19.300781 0-35 15.699219-35 35v80c0 19.300781 15.699219 35 35 35h20c19.300781 0 35-15.699219 35-35v-80c0-19.300781-15.699219-35-35-35zm5 115c0 2.757812-2.242188 5-5 5h-20c-2.757812 0-5-2.242188-5-5v-80c0-2.757812 2.242188-5 5-5h20c2.757812 0 5 2.242188 5 5zm0 0" fill="#feef55"/><path d="m266 110h-10v30h10c2.757812 0 5 2.242188 5 5v80c0 2.757812-2.242188 5-5 5h-10v30h10c19.300781 0 35-15.699219 35-35v-80c0-19.300781-15.699219-35-35-35zm0 0" fill="#fedc00"/></svg>