<svg data-name="Capa 1" xmlns="http://www.w3.org/2000/svg" viewBox="0 0 16.25 16.25"><path d="M13.19 3.95a.84.84 0 01-.07.35.93.93 0 01-.2.3 1 1 0 01-.3.21.94.94 0 01-.71 0 1 1 0 01-.28-.18.79.79 0 01-.2-.3.84.84 0 01-.07-.35.91.91 0 01.27-.68.91.91 0 011.31 0 .91.91 0 01.25.65zm2.94 4.18h0l-.05 3.36a4.64 4.64 0 01-4.58 4.58l-3.37.06h0l-3.36-.05A4.64 4.64 0 01.18 11.5L.13 8.13h0l.05-3.37A4.64 4.64 0 014.76.18L8.13.13h0l3.36.05a4.64 4.64 0 014.58 4.58zm-1.5 0V4.78a3.14 3.14 0 00-3.15-3.15h-6.7a3.14 3.14 0 00-3.15 3.15v6.7a3.14 3.14 0 003.15 3.15h6.7a3.14 3.14 0 003.15-3.15zm-2.4 0a4.1 4.1 0 01-7 2.9 4.101 4.101 0 115.8-5.8 4.06 4.06 0 011.21 2.9zm-1.49 0a2.63 2.63 0 10-.77 1.85 2.63 2.63 0 00.78-1.85z" fill="#fff" stroke="#000" stroke-miterlimit="10" stroke-width=".25"/></svg>