<svg id="Layer_1" data-name="Layer 1" xmlns="http://www.w3.org/2000/svg" viewBox="0 0 501.36 501.52"><defs><style>.cls-1{fill:#fff;stroke:#000;stroke-miterlimit:10;stroke-width:3px}</style></defs><path class="cls-1" d="M258.9 507.2C120.4 507.8 6.6 392.6 9.9 252 12.9 118 124 7 262.4 8.7c136.5 1.7 249.4 115.4 245.7 256.1-3.4 133.4-113.5 243-249.2 242.4zM477.8 258c-1-125.2-102.2-221.4-221.5-220-116.6 1.4-216.1 96.4-215.9 220.3.2 125.2 102.2 221.3 221.5 219.7 116.4-1.5 214.9-96.3 215.9-220z" transform="translate(-8.33 -7.18)"/><path class="cls-1" d="M241.7 321.6c-2.5 10.8-5.4 21.5-7.6 32.3-5.3 26.7-14.9 51.6-30.1 74.2-2.6 3.8-5.2 7.7-8 11.4-.7.9-2.6 2.2-3 1.9a4.93 4.93 0 01-2.3-3.4c-.9-16.8-2.4-33.5-2.2-50.3.3-22.3 7.3-43.5 11.9-65.1 2.9-13.6 5.8-27.3 8.7-40.9 1.6-7.6 3.7-15.2 4.9-22.9a24.42 24.42 0 00-.5-11.1c-6-18.8-6.1-37.3 1.8-55.5 3.9-9.1 9.8-16.8 19.4-20.9 16.9-7.2 33.6 2.8 35.5 21.3 1.4 13.1-1.8 25.4-5.2 37.8-3.9 14.6-8.6 29.1-11.1 43.9-3.8 22.6 15.3 39.3 37.6 34.3 15.4-3.4 25-13.9 32.6-26.5a124.3 124.3 0 0016.8-53.6c.9-10.9 1.8-21.9 1.5-32.9-.5-16.5-5.6-31.7-16.2-44.6-10.5-12.7-24.2-20.4-40.2-23.6-19.5-3.9-38.6-2.7-57.2 5.1a84.37 84.37 0 00-40.6 35.1 99.84 99.84 0 00-13.9 67.9 49.11 49.11 0 0010.6 24.9c3.5 4.3 4.9 8.7 2.8 14.2-1.5 4-1.9 8.4-2.9 12.6-1.6 7.1-5.4 8.6-11.9 5.4-19.2-9.6-27.8-26.7-32.9-46.2a118.59 118.59 0 01-1.6-49.6 126.19 126.19 0 0125.8-57.5 123 123 0 0158.3-41.1 140.21 140.21 0 0170.9-5.6c30.5 5.5 55.5 20.9 73.7 46.4 17.7 24.9 24.1 52.8 21.3 83-1.5 15.7-4 31.3-9.2 46.3-8.7 25.3-21.9 47.5-45 62.2a100 100 0 01-25.3 11c-7 2.1-14.7 2.6-22.1 2.6-17.5-.2-32-7.2-42.6-21.4a6.19 6.19 0 01-.7-1.9 15.86 15.86 0 00-1.8.8z" transform="translate(-8.33 -7.18)"/></svg>