<?xml version="1.0" encoding="utf-8"?>
<!-- Generator: Adobe Illustrator 23.0.0, SVG Export Plug-In . SVG Version: 6.00 Build 0)  -->
<svg version="1.1" id="Capa_1" xmlns="http://www.w3.org/2000/svg" xmlns:xlink="http://www.w3.org/1999/xlink" x="0px" y="0px"
	 viewBox="0 0 512 512" style="enable-background:new 0 0 512 512;" xml:space="preserve">
<style type="text/css">
	.st0{fill:#F2CD5E;}
</style>
<g>
	<g>
		<circle cx="73" cy="438.4" r="15"/>
	</g>
</g>
<g>
	<g>
		<path class="st0" d="M474.7,344.5c-0.1-0.1-0.2-0.1-0.3-0.2c-35.3-25.1-107.5-76.6-140.6-100.1l5.1-5.9c0,0,0.1-0.1,0.1-0.1
			c2.9-3.4,7-5.3,11.5-5.3H409c12,0,23.3-4.7,31.8-13.2l49.2-49.2c29.2-29.2,29.2-76.8,0-106.1c-2.8-2.8-6.6-4.4-10.6-4.4
			s-7.8,1.6-10.6,4.4l-42.4,42.4c-5.8,5.8-15.4,5.8-21.2,0c-5.9-5.9-5.9-15.3,0-21.2l42.4-42.4c5.9-5.9,5.9-15.4,0-21.2
			c-29.3-29.3-76.8-29.3-106.1,0l-49.2,49.2C283.9,79.7,279,91,279,103v58.5c0,4.4-1.8,8.6-5.1,11.5c0,0-0.1,0.1-0.1,0.1l-19.9,17.2
			L177.6,114l-20.1-60.3c-1.3-3.8-3.9-6.9-7.5-8.6L64.2,1.6c-5.8-2.9-12.8-1.8-17.4,2.8L4.4,46.8c-4.6,4.6-5.7,11.6-2.8,17.4
			l43.4,85.9c1.8,3.5,4.9,6.2,8.6,7.5l60.3,20.1l71.5,71.5l-158.9,137C12.2,398.4,3,415.4,0.6,434c-2.5,19.5,2.9,38.2,15,52.7
			c28.3,33.7,79.5,33.4,107.5,0.5l119.1-137.4c10.9,13.3,92.3,112.8,102.4,125.2c34,45,100.1,49.6,140,9.7
			C524.8,444.6,520,378.4,474.7,344.5z M132.7,153.9c-1.6-1.6-3.7-2.9-5.9-3.6L69.1,131L33.3,60.4l27.1-27.1L131,69l19.3,57.8
			c0.7,2.2,2,4.2,3.6,5.9l77.2,77.2l-22.8,19.6L132.7,153.9z M100.4,467.6c0,0-0.1,0.1-0.1,0.1c-16,18.9-45.3,19.2-61.6-0.3
			c-13.9-16.5-10.5-43.3,7.4-58.5c0,0,0.1-0.1,0.1-0.1c133.2-114.7,214.2-184.7,247.1-213.1c10.1-8.6,15.7-21.1,15.7-34.3V103
			c0-4,1.7-7.8,4.6-10.6l49.2-49.2c14.1-14.1,34.8-16.7,51.2-8.8l-30,30c-17.5,17.5-17.5,46.1,0,63.6c17.5,17.5,46.1,17.5,63.6,0
			l30-30c8,16.7,5,37.4-8.8,51.2l-49.2,49.2c-2.8,2.8-6.6,4.6-10.6,4.6h-58.5c-13.2,0-25.7,5.6-34.3,15.7L100.4,467.6z M262.2,326.8
			l52-59.9l24,17.1l-56,67.2L262.2,326.8z M463.5,463.5c-27.1,27.1-72,23.9-95-6.8c-0.1-0.2-0.3-0.3-0.4-0.5l-66.6-81.4l61.2-73.4
			l94.2,67.1C487.5,391.6,490.5,436.4,463.5,463.5z"/>
	</g>
</g>
</svg>
