<svg data-name="Capa 1" xmlns="http://www.w3.org/2000/svg" viewBox="0 0 516 516"><path d="M462 3H54A51.15 51.15 0 003 54v408a51.15 51.15 0 0051 51h408a51.15 51.15 0 0051-51V54a51.15 51.15 0 00-51-51zm-58.65 186.15c-2.55 117.3-76.5 198.9-188.7 204-45.9 2.55-79.05-12.75-109.65-30.6 33.15 5.1 76.5-7.65 99.45-28.05-33.15-2.5-53.55-20.4-63.75-48.45 10.2 2.55 20.4 0 28.05 0-30.6-10.2-51-28.05-53.55-68.85 7.65 5.1 17.85 7.65 28.05 7.65-23-12.75-38.25-61.2-20.4-91.8 33.15 35.7 74 66.3 140.25 71.4-17.85-71.4 79-109.65 117.3-61.2 17.85-2.55 30.6-10.2 43.35-15.3-5.1 17.85-15.3 28.05-28.05 38.25 12.75-2.55 25.5-5.1 35.7-10.2-2.55 12.75-15.3 23-28.05 33.15z" fill="#fff" stroke="#000" stroke-miterlimit="10" stroke-width="6"/></svg>